<svg width="52" height="104" viewBox="0 0 52 104" fill="none" xmlns="http://www.w3.org/2000/svg">
<rect x="52" y="104" width="52" height="104" rx="4" transform="rotate(-180 52 104)" fill="#D9D9D9"/>
<rect x="50" y="102" width="48" height="100" rx="3" transform="rotate(-180 50 102)" fill="white"/>
<rect x="49.5" y="101.5" width="47" height="99" rx="2.5" transform="rotate(-180 49.5 101.5)" stroke="url(#paint0_linear_245_25314)" stroke-opacity="0.1"/>
<rect x="46" y="52" width="40" height="2" transform="rotate(-180 46 52)" fill="#444444"/>
<circle cx="36" cy="66.9297" r="5" transform="rotate(-180 36 66.9297)" fill="#444444"/>
<circle cx="36" cy="66.9297" r="4.5" transform="rotate(-180 36 66.9297)" stroke="url(#paint1_linear_245_25314)" stroke-opacity="0.2"/>
<circle cx="16" cy="86.9297" r="5" transform="rotate(-180 16 86.9297)" fill="#444444"/>
<circle cx="16" cy="86.9297" r="4.5" transform="rotate(-180 16 86.9297)" stroke="url(#paint2_linear_245_25314)" stroke-opacity="0.2"/>
<circle cx="36" cy="86.9297" r="5" transform="rotate(-90 36 86.9297)" fill="#444444"/>
<circle cx="36" cy="86.9297" r="4.5" transform="rotate(-90 36 86.9297)" stroke="url(#paint3_linear_245_25314)" stroke-opacity="0.2"/>
<circle cx="16" cy="66.9297" r="5" transform="rotate(-90 16 66.9297)" fill="#444444"/>
<circle cx="16" cy="66.9297" r="4.5" transform="rotate(-90 16 66.9297)" stroke="url(#paint4_linear_245_25314)" stroke-opacity="0.2"/>
<defs>
<linearGradient id="paint0_linear_245_25314" x1="74" y1="102" x2="74" y2="202" gradientUnits="userSpaceOnUse">
<stop stop-color="white"/>
<stop offset="1"/>
</linearGradient>
<linearGradient id="paint1_linear_245_25314" x1="36" y1="61.9297" x2="36" y2="71.9297" gradientUnits="userSpaceOnUse">
<stop stop-color="white"/>
<stop offset="1"/>
</linearGradient>
<linearGradient id="paint2_linear_245_25314" x1="16" y1="81.9297" x2="16" y2="91.9297" gradientUnits="userSpaceOnUse">
<stop stop-color="white"/>
<stop offset="1"/>
</linearGradient>
<linearGradient id="paint3_linear_245_25314" x1="36" y1="81.9297" x2="36" y2="91.9297" gradientUnits="userSpaceOnUse">
<stop stop-color="white"/>
<stop offset="1"/>
</linearGradient>
<linearGradient id="paint4_linear_245_25314" x1="16" y1="61.9297" x2="16" y2="71.9297" gradientUnits="userSpaceOnUse">
<stop stop-color="white"/>
<stop offset="1"/>
</linearGradient>
</defs>
</svg>
