<svg width="52" height="104" viewBox="0 0 52 104" fill="none" xmlns="http://www.w3.org/2000/svg">
<rect width="52" height="104" rx="4" fill="#D9D9D9"/>
<rect x="2" y="2" width="48" height="100" rx="3" fill="white"/>
<rect x="2.5" y="2.5" width="47" height="99" rx="2.5" stroke="url(#paint0_linear_245_25381)" stroke-opacity="0.1"/>
<rect x="6" y="52" width="40" height="2" fill="#444444"/>
<circle cx="17" cy="63" r="5" fill="#444444"/>
<circle cx="17" cy="63" r="4.5" stroke="url(#paint1_linear_245_25381)" stroke-opacity="0.2"/>
<circle cx="17" cy="77" r="5" fill="#444444"/>
<circle cx="17" cy="77" r="4.5" stroke="url(#paint2_linear_245_25381)" stroke-opacity="0.2"/>
<circle cx="17" cy="91" r="5" fill="#444444"/>
<circle cx="17" cy="91" r="4.5" stroke="url(#paint3_linear_245_25381)" stroke-opacity="0.2"/>
<circle cx="35" cy="63" r="5" fill="#444444"/>
<circle cx="35" cy="63" r="4.5" stroke="url(#paint4_linear_245_25381)" stroke-opacity="0.2"/>
<circle cx="35" cy="77" r="5" fill="#444444"/>
<circle cx="35" cy="77" r="4.5" stroke="url(#paint5_linear_245_25381)" stroke-opacity="0.2"/>
<circle cx="35" cy="91" r="5" fill="#444444"/>
<circle cx="35" cy="91" r="4.5" stroke="url(#paint6_linear_245_25381)" stroke-opacity="0.2"/>
<defs>
<linearGradient id="paint0_linear_245_25381" x1="26" y1="2" x2="26" y2="102" gradientUnits="userSpaceOnUse">
<stop stop-color="white"/>
<stop offset="1"/>
</linearGradient>
<linearGradient id="paint1_linear_245_25381" x1="17" y1="58" x2="17" y2="68" gradientUnits="userSpaceOnUse">
<stop stop-color="white"/>
<stop offset="1"/>
</linearGradient>
<linearGradient id="paint2_linear_245_25381" x1="17" y1="72" x2="17" y2="82" gradientUnits="userSpaceOnUse">
<stop stop-color="white"/>
<stop offset="1"/>
</linearGradient>
<linearGradient id="paint3_linear_245_25381" x1="17" y1="86" x2="17" y2="96" gradientUnits="userSpaceOnUse">
<stop stop-color="white"/>
<stop offset="1"/>
</linearGradient>
<linearGradient id="paint4_linear_245_25381" x1="35" y1="58" x2="35" y2="68" gradientUnits="userSpaceOnUse">
<stop stop-color="white"/>
<stop offset="1"/>
</linearGradient>
<linearGradient id="paint5_linear_245_25381" x1="35" y1="72" x2="35" y2="82" gradientUnits="userSpaceOnUse">
<stop stop-color="white"/>
<stop offset="1"/>
</linearGradient>
<linearGradient id="paint6_linear_245_25381" x1="35" y1="86" x2="35" y2="96" gradientUnits="userSpaceOnUse">
<stop stop-color="white"/>
<stop offset="1"/>
</linearGradient>
</defs>
</svg>
