<svg width="202" height="198" viewBox="0 0 202 198" fill="none" xmlns="http://www.w3.org/2000/svg">
<path d="M102.784 1.12715L166.292 24.244L201.039 84.4453C196.992 107.241 192.97 130.042 188.978 152.844L135.732 197.523H66.2656L13.0194 152.844L0.959015 84.4453C12.5273 64.3731 24.0978 44.2943 35.7055 24.244C57.4576 16.2978 79.2315 8.39312 100.997 0.477539L102.782 1.12715H102.784ZM96.6441 120.668H110.866V145.329C107.215 148.085 102.989 150.198 98.1839 151.67C93.3786 153.144 88.5448 153.881 83.676 153.881C76.6921 153.881 70.4169 152.392 64.8439 149.413C59.2686 146.434 54.8985 142.302 51.727 137.018C48.5577 131.733 46.9719 125.762 46.9719 119.098C46.9719 112.437 48.5577 106.464 51.727 101.178C54.8985 95.8933 59.3014 91.7616 64.9379 88.7848C75.0364 83.4479 82.3943 83.9554 91.9131 84.9768V98.1505C85.5373 97.444 79.4065 96.9738 73.2975 100.266C69.9664 102.059 67.3745 104.59 65.5153 107.855C63.6584 111.121 62.7288 114.867 62.7288 119.095C62.7288 123.26 63.6584 126.976 65.5153 130.242C67.3745 133.507 69.9511 136.053 73.2494 137.879C76.5456 139.706 80.3098 140.618 84.5378 140.618C89.0216 140.618 93.0571 139.658 96.6419 137.735V120.664L96.6441 120.668ZM96.6988 85.4864H96.7032V52.258H124.315C130.271 52.258 135.444 53.2532 139.831 55.2348C144.217 57.223 147.596 60.0402 149.969 63.6907C152.338 67.3433 153.523 71.6653 153.523 76.6631C153.523 81.5932 152.338 85.902 149.969 89.5853C147.596 93.2664 144.219 96.0857 139.831 98.0389C131.482 101.755 123.755 101.263 115.463 100.449V87.5074C121.85 88.3561 129.418 89.1566 134.114 85.259C136.546 83.2401 137.766 80.3771 137.766 76.6631C137.766 72.8814 136.548 69.9855 134.114 67.9667C131.679 65.9479 128.125 64.9396 123.447 64.9396H110.765V80.7029H110.677V103.081H110.765V116.134H96.701V98.6667H96.6966V85.4842L96.6988 85.4864ZM158.23 44.7799C143.582 30.1342 123.346 21.0747 100.997 21.0747C78.6497 21.0747 58.4112 30.1364 43.7655 44.7799C29.1197 59.4278 20.0602 79.664 20.0602 102.013C20.0602 124.36 29.1219 144.599 43.7655 159.242C58.4134 173.888 78.6497 182.947 100.997 182.947C123.344 182.947 143.582 173.886 158.23 159.242C172.876 144.596 181.935 124.36 181.935 102.013C181.935 79.6662 172.874 59.4278 158.23 44.7799V44.7799Z" fill="#F9F1DF"/>
</svg>
